<?xml version="1.0" encoding="UTF-8"?>
<svg id="Layer_2" data-name="Layer 2" xmlns="http://www.w3.org/2000/svg" viewBox="0 0 25 25">
  <g id="Lock">
    <rect id="BG" width="25" height="25" style="fill: none;"/>
    <g>
      <g id="Lock-2" data-name="Lock">
        <path d="M7.41,20.19c-1.08,0-1.96-.88-1.96-1.96v-6.47c0-.88,.58-1.63,1.39-1.88,.29-3.04,2.72-5.45,5.71-5.6,.09,0,.18,0,.27,0,3.2,0,5.83,2.48,6.05,5.61,.8,.25,1.38,.99,1.38,1.87v6.47c0,1.08-.88,1.96-1.96,1.96H7.41Z" style="fill: #1a1a1a;"/>
        <path d="M12.83,4.89c3.02,0,5.47,2.43,5.47,5.45v.03s-.01,.02-.01,.03h.01c.75,0,1.36,.61,1.36,1.36v6.47c0,.75-.61,1.36-1.36,1.36H7.41c-.75,0-1.36-.61-1.36-1.36v-6.47c0-.75,.61-1.36,1.36-1.36h.02s-.02-.02-.02-.03c.07-2.89,2.28-5.34,5.17-5.48,.08,0,.16,0,.25,0m0-1.2h0c-.1,0-.2,0-.3,0-3.17,.15-5.77,2.62-6.24,5.77-.85,.42-1.44,1.29-1.44,2.3v6.47c0,1.41,1.15,2.56,2.56,2.56h10.89c1.41,0,2.56-1.15,2.56-2.56v-6.47c0-1-.58-1.87-1.42-2.29-.44-3.27-3.23-5.78-6.61-5.78h0Z" style="fill: #e6e6e6;"/>
      </g>
      <path id="Hole" d="M16.27,10.41h-.01v-.03s.01,.02,.01,.03Zm-6.82-.03v-.03c0-1.94,1.67-3.54,3.64-3.4,1.78,.13,3.12,1.66,3.16,3.47h-6.81s.01-.02,.01-.03Z" style="fill: #e6e6e6;"/>
    </g>
  </g>
</svg>