<?xml version="1.0" encoding="UTF-8"?>
<svg id="Layer_2" data-name="Layer 2" xmlns="http://www.w3.org/2000/svg" viewBox="0 0 512 512">
  <g id="Logo">
    <g id="LOGO_RESULT">
      <rect id="FrameBG" width="512" height="512" style="fill: none;"/>
      <path id="e" d="M461.18,377.33s.02-.09,.03-.14c-7.74,19.45-20.62,38.52-40.34,44.14-69.44,19.8-76.77-56.41-76-83.95,15.29-.58,95.43-.48,121.94-.2,.45-38.04-16.06-58.94-34.27-73.01-15.58-10.89-35.13-17.1-57.57-17.1-56.25,0-106.93,34.71-108.47,98.29-1.44,59.49,46.93,97.85,103.18,98.02,52.13,.16,85.57-26,97.55-63.68-2.21-.89-4.27-1.7-6.07-2.37Zm-90.77-123.28c26.97,.92,26.56,41.85,26.56,74.46h-52.1c1.03-29.13-.62-74.87,25.54-74.46Z" style="fill: gray;"/>
      <path id="f" d="M327.67,95.48c-16.72-9.2-36.11-13.8-58.19-13.8-33.25,0-63.02,9.61-89.32,28.8-26.31,19.21-38.71,40.28-39.46,63.18-.32,9.7-.52,22.48-.66,36.31h-28.39l-7.75,18.4h36c-.13,23.4-.1,47.29-.07,62.94,.06,33.31,1.27,123.21-3.98,133.13-1.89,3.58-7.56,6.1-16.94,6.78-2.9,.21-11.62,.48-11.62,.48v7.75h162.66v-7.75s-13.37-.12-17.81-.48c-9.3-.77-15.27-3.92-17.15-9.17-2.74-7.62-2.73-93.05-2.85-127.69-.05-15.34,.08-41.08,.26-65.99h46.75l8.23-18.4h-54.84c.14-16.83,.28-31.83,.37-41,.2-20.01,2.57-41.5,6.46-54.92,4.46-15.38,14.71-24.14,25.9-24.14,0,0,17.89-.9,16.3,11.62-.41,3.2-3.21,8.23-9.64,15.01-6.43,6.78-9.64,14.36-9.64,22.75,0,11.62,4.46,20.9,13.37,27.84,8.91,6.94,19.21,10.41,30.88,10.41s22.29-3.95,31.85-11.86c9.56-7.9,14.34-17.67,14.34-29.29,0-18.07-8.37-31.71-25.08-40.91Z" style="fill: gray;"/>
      <circle id="dot" cx="66.14" cy="412.18" r="30.65" style="fill: gray;"/>
    </g>
  </g>
</svg>