<?xml version="1.0" encoding="UTF-8"?>
<svg id="Layer_2" data-name="Layer 2" xmlns="http://www.w3.org/2000/svg" viewBox="0 0 25 25">
  <g id="PathTool">
    <rect width="25" height="25" style="fill: none;"/>
    <line x1="17.33" y1="19.83" x2="22.64" y2="19.83" style="fill: none; stroke: #e6e6e6; stroke-miterlimit: 10; stroke-width: 1.3px;"/>
    <line x1="19.98" y1="17.17" x2="19.98" y2="22.49" style="fill: none; stroke: #e6e6e6; stroke-miterlimit: 10; stroke-width: 1.3px;"/>
    <polygon points="12.67 6.44 18.18 11.95 21.16 8.94 15.59 3.36 12.67 6.44" style="fill: #e6e6e6;"/>
    <path d="M12.15,6.94s-1.04,.84-3.29,1.59c-.74,.25-1.61,1.02-1.91,1.75l-3.11,8.25c-.01,.05,0,.11,.03,.14l.47,.47,5.03-5.03c-.11-.24-.2-.5-.2-.78,0-.5,.19-.96,.54-1.31,.35-.35,.83-.54,1.31-.54s.96,.19,1.31,.54c.35,.35,.54,.83,.54,1.31s-.19,.96-.54,1.31-.83,.54-1.31,.54c-.28,0-.54-.08-.78-.2l-5.03,5.03,.48,.47s.05,.04,.09,.04c.01,0,.03,0,.04-.01l8.26-3.11c.73-.3,1.49-.99,1.82-1.93,.49-1.39,1.7-3.07,1.7-3.07l-5.45-5.45Z" style="fill: #e6e6e6;"/>
  </g>
</svg>