<?xml version="1.0" encoding="UTF-8"?>
<svg id="Layer_2" data-name="Layer 2" xmlns="http://www.w3.org/2000/svg" viewBox="0 0 25 25">
  <g id="SelectorA">
    <rect width="25" height="25" style="fill: none;"/>
    <g>
      <path d="M7.8,21.19s-.11,0-.11-.1V5.08c0-.1,.11-.1,.11-.1l11.38,11.6s.05,.05,.02,.11c-.03,.06-.08,.06-.09,.06h-5.58c-.88,0-1.73,.36-2.34,.99l-3.32,3.42-.07,.03Z" style="fill: #1a1a1a;"/>
      <path d="M8.19,6.06l9.96,10.19h-4.63c-1.01,0-1.99,.42-2.7,1.14l-2.63,2.71V6.06m-.39-1.58c-.31,0-.61,.24-.61,.61V21.09c0,.37,.3,.61,.61,.61,.15,0,.31-.06,.43-.18l3.32-3.42c.52-.53,1.23-.84,1.98-.84h5.58c.54,0,.81-.64,.43-1.03L8.22,4.66c-.12-.13-.28-.18-.43-.18h0Z" style="fill: #e6e6e6;"/>
    </g>
  </g>
</svg>