<?xml version="1.0" encoding="UTF-8"?>
<svg id="Layer_2" data-name="Layer 2" xmlns="http://www.w3.org/2000/svg" viewBox="0 0 25 25">
  <g id="triangleBlackStroke_copy" data-name="triangleBlackStroke copy">
    <rect id="BG" width="25" height="25" style="fill: none;"/>
    <g id="Icon">
      <path d="M7.6,19.13c.07,.23,.12,.48,.12,.74s-.05,.5-.12,.74h9.79c-.07-.23-.12-.48-.12-.74s.05-.5,.12-.74H7.6Z" style="fill: #1a1a1a;"/>
      <path d="M6.9,17.98L12.05,7.68c-.51-.09-.96-.32-1.32-.66l-5.15,10.3c.51,.09,.96,.32,1.32,.66Z" style="fill: #1a1a1a;"/>
      <path d="M19.42,17.32L14.27,7.02c-.36,.34-.81,.57-1.32,.66l5.15,10.3c.36-.34,.81-.57,1.32-.66Z" style="fill: #1a1a1a;"/>
      <path d="M12.5,3.82c-.72,0-1.31,.59-1.31,1.31s.59,1.31,1.31,1.31,1.31-.59,1.31-1.31-.59-1.31-1.31-1.31Z" style="fill: #1a1a1a;"/>
      <path d="M19.87,18.56c-.72,0-1.31,.59-1.31,1.31s.59,1.31,1.31,1.31,1.31-.59,1.31-1.31-.59-1.31-1.31-1.31Z" style="fill: #1a1a1a;"/>
      <path d="M5.13,18.56c-.72,0-1.31,.59-1.31,1.31s.59,1.31,1.31,1.31,1.31-.59,1.31-1.31-.59-1.31-1.31-1.31Z" style="fill: #1a1a1a;"/>
    </g>
  </g>
</svg>